<?xml version="1.0" encoding="utf-8"?>
<!-- Generator: Adobe Illustrator 16.0.0, SVG Export Plug-In . SVG Version: 6.00 Build 0)  -->
<svg version="1.2" baseProfile="tiny"
     xmlns="http://www.w3.org/2000/svg" xmlns:xlink="http://www.w3.org/1999/xlink"
     x="0px" y="0px" width="100px" height="100px" viewBox="0 0 100 100" xml:space="preserve">
  <g>
    <polygon fill="#F58536" points="30.143,70.952 23.174,72.542 23.174,27.409 30.143,29.002"/>
    <polygon fill="#F58536" points="38.838,73.616 30.143,76.087 30.143,23.926 38.838,26.394"/>
    <polygon fill="#F58536" points="49.992,76.353 38.838,80.435 38.838,19.578 49.992,23.658"/>
    <polygon fill="#F58536" points="79.816,71.088 49.992,86 49.992,14 79.816,28.912"/>
    <polygon fill="#9D5025" points="44.047,16.973 49.992,14 49.992,86 44.047,83.028"/>
    <polygon fill="#9D5025" points="34.236,21.878 38.838,19.577 38.838,80.423 34.236,78.122"/>
    <polygon fill="#9D5025" points="26.477,25.758 30.143,23.925 30.143,76.075 26.477,74.241"/>
    <polygon fill="#9D5025" points="23.174,27.409 20.184,28.904 20.184,71.097 23.174,72.591"/>
  </g>
</svg>
