<svg contentScriptType="text/ecmascript" width="100.0px" xmlns:xlink="http://www.w3.org/1999/xlink" zoomAndPan="magnify" contentStyleType="text/css" viewBox="0 0 100.0 100.0" height="100.0px" preserveAspectRatio="xMidYMid meet" xmlns="http://www.w3.org/2000/svg" version="1.0">
<defs>
<path id="SVGID_5_" d="M26.04,75.87v2.461c-2.375,0-4.307-1.926-4.307-4.289v-2.459C21.733,73.942,23.665,75.87,26.04,75.87z"/>
<path id="SVGID_7_" d="M78.29,71.583v2.459c0,2.363-1.93,4.289-4.316,4.289V75.87C76.36,75.87,78.29,73.942,78.29,71.583z"/>
<path id="SVGID_9_" d="M28.304,58.933v2.459c-3.604,0-6.535-2.916-6.535-6.494v-2.461C21.769,56.015,24.7,58.933,28.304,58.933       z"/>
<path id="SVGID_11_" d="M78.202,52.437v2.461c0,3.578-2.938,6.494-6.547,6.494v-2.459       C75.265,58.933,78.202,56.015,78.202,52.437z"/>
<path id="SVGID_1_" d="M85.245,58.712v2.615c0,5.863-6.395,11.791-14.256,11.791v-2.613        C78.851,70.505,85.245,64.575,85.245,58.712z"/>
<path id="SVGID_3_" d="M29.009,70.505v2.613c-7.875,0-14.254-5.928-14.254-11.791v-2.615        C14.755,64.575,21.134,70.505,29.009,70.505z"/>
</defs>
<g id="0">
<g>
<g enable-background="new    ">
<g>
<clipPath id="SVGID_2_" transform="matrix( 1.726166406613668, 0, 0, 1.6685085914691287, -36.30287333265783, -32.92543061669937)">
<use xlink:href="#SVGID_5_" xlink:type="simple" xlink:actuate="onLoad" xlink:show="embed" overflow="visible"/>
</clipPath>
<g enable-background="new    " clip-path="url(#SVGID_2_)">
<path d="M26.04,75.87v2.461c-2.375,0-4.307-1.926-4.307-4.289v-2.459C21.733,73.942,23.665,75.87,26.04,75.87" style="fill:#9D5125;" transform="matrix( 1.726166406613668, 0, 0, 1.6685085914691287, -36.30287333265783, -32.92543061669937)"/>
</g>
</g>
<g>
<clipPath id="SVGID_4_" transform="matrix( 1.726166406613668, 0, 0, 1.6685085914691287, -36.30287333265783, -32.92543061669937)">
<use xlink:href="#SVGID_7_" xlink:type="simple" xlink:actuate="onLoad" xlink:show="embed" overflow="visible"/>
</clipPath>
<g enable-background="new    " clip-path="url(#SVGID_4_)">
<path d="M78.29,71.583v2.459c0,0.209-0.014,0.412-0.043,0.613v-2.461C78.276,71.993,78.29,71.79,78.29,71.583" style="fill:#9D5125;" transform="matrix( 1.726166406613668, 0, 0, 1.6685085914691287, -36.30287333265783, -32.92543061669937)"/>
<path d="M78.247,72.194v2.461c-0.033,0.234-0.086,0.471-0.158,0.691v-2.461       C78.161,72.659,78.214,72.429,78.247,72.194" style="fill:#9D5125;" transform="matrix( 1.726166406613668, 0, 0, 1.6685085914691287, -36.30287333265783, -32.92543061669937)"/>
<path d="M78.089,72.886v2.461c-0.086,0.26-0.195,0.514-0.328,0.752v-2.463       C77.894,73.399,78.003,73.149,78.089,72.886" style="fill:#9D5125;" transform="matrix( 1.726166406613668, 0, 0, 1.6685085914691287, -36.30287333265783, -32.92543061669937)"/>
<path d="M77.761,73.636v2.463c-0.732,1.326-2.152,2.232-3.787,2.232V75.87       C75.608,75.87,77.028,74.966,77.761,73.636" style="fill:#9D5125;" transform="matrix( 1.726166406613668, 0, 0, 1.6685085914691287, -36.30287333265783, -32.92543061669937)"/>
</g>
</g>
<g>
<polygon style="fill:#9D5125;" transform="matrix( 1.726166406613668, 0, 0, 1.6685085914691287, -36.30287333265783, -32.92543061669937)" points="74.421,75.653 73.974,78.331 26.04,78.331 25.702,75.622     "/>
</g>
<g>
<path d="M73.95,63.853c2.389,0,4.318,1.914,4.318,4.287v3.463c0,2.363-1.93,4.289-4.318,4.289H26.019      c-2.377,0-4.309-1.926-4.309-4.289V68.14c0-2.373,1.932-4.287,4.309-4.287H73.95z M72.046,71.591      c0.957,0,1.725-0.771,1.725-1.725c0-0.939-0.768-1.715-1.725-1.715h-17.92c-0.961,0-1.725,0.775-1.725,1.715      c0,0.953,0.764,1.725,1.725,1.725H72.046" style="fill:#F58535;" transform="matrix( 1.726166406613668, 0, 0, 1.6685085914691287, -36.30287333265783, -32.92543061669937)"/>
</g>
</g>
<g enable-background="new    ">
<g>
<clipPath id="SVGID_6_" transform="matrix( 1.726166406613668, 0, 0, 1.6685085914691287, -36.30287333265783, -32.92543061669937)">
<use xlink:href="#SVGID_9_" xlink:type="simple" xlink:actuate="onLoad" xlink:show="embed" overflow="visible"/>
</clipPath>
<g enable-background="new    " clip-path="url(#SVGID_6_)">
<path d="M28.304,58.933v2.459c-3.604,0-6.535-2.916-6.535-6.494v-2.461       C21.769,56.015,24.7,58.933,28.304,58.933" style="fill:#9D5125;" transform="matrix( 1.726166406613668, 0, 0, 1.6685085914691287, -36.30287333265783, -32.92543061669937)"/>
</g>
</g>
<g>
<clipPath id="SVGID_8_" transform="matrix( 1.726166406613668, 0, 0, 1.6685085914691287, -36.30287333265783, -32.92543061669937)">
<use xlink:href="#SVGID_11_" xlink:type="simple" xlink:actuate="onLoad" xlink:show="embed" overflow="visible"/>
</clipPath>
<g enable-background="new    " clip-path="url(#SVGID_8_)">
<path d="M78.202,52.437v2.461c0,0.311-0.02,0.619-0.066,0.92v-2.461C78.183,53.058,78.202,52.747,78.202,52.437       " style="fill:#9D5125;" transform="matrix( 1.726166406613668, 0, 0, 1.6685085914691287, -36.30287333265783, -32.92543061669937)"/>
<path d="M78.136,53.356v2.461c-0.049,0.359-0.133,0.709-0.24,1.045v-2.461       C78.003,54.063,78.087,53.716,78.136,53.356" style="fill:#9D5125;" transform="matrix( 1.726166406613668, 0, 0, 1.6685085914691287, -36.30287333265783, -32.92543061669937)"/>
<path d="M77.896,54.401v2.461c-0.127,0.398-0.293,0.779-0.49,1.141v-2.459       C77.603,55.181,77.769,54.8,77.896,54.401" style="fill:#9D5125;" transform="matrix( 1.726166406613668, 0, 0, 1.6685085914691287, -36.30287333265783, -32.92543061669937)"/>
<path d="M77.405,55.544v2.459c-1.115,2.018-3.275,3.389-5.75,3.389v-2.459       C74.13,58.933,76.29,57.56,77.405,55.544" style="fill:#9D5125;" transform="matrix( 1.726166406613668, 0, 0, 1.6685085914691287, -36.30287333265783, -32.92543061669937)"/>
</g>
</g>
<g>
<polygon style="fill:#9D5125;" transform="matrix( 1.726166406613668, 0, 0, 1.6685085914691287, -36.30287333265783, -32.92543061669937)" points="72.171,58.747 71.655,61.392 28.304,61.392 27.577,58.497     "/>
</g>
<g>
<path d="M71.655,21.669c3.609,0,6.547,2.918,6.547,6.496v24.271c0,3.578-2.938,6.496-6.547,6.496H28.304      c-3.604,0-6.535-2.918-6.535-6.496V28.165c0-3.578,2.932-6.496,6.535-6.496H71.655z M73.628,52.437V28.165      c0-1.078-0.883-1.951-1.973-1.951H28.304c-1.076,0-1.955,0.873-1.955,1.951v24.271c0,1.076,0.879,1.949,1.955,1.949h43.352      C72.745,54.386,73.628,53.513,73.628,52.437" style="fill:#F58535;" transform="matrix( 1.726166406613668, 0, 0, 1.6685085914691287, -36.30287333265783, -32.92543061669937)"/>
</g>
</g>
</g>
</g>
<g id="1">
<g>
<g>
<g enable-background="new    ">
<g>
<clipPath id="SVGID_2_" transform="matrix( 0.8581359576530029, 0, 0, 0.7404620383886825, 7.0932020719930815, -2.023100523885036)">
<use xlink:href="#SVGID_1_" xlink:type="simple" xlink:actuate="onLoad" xlink:show="embed" overflow="visible"/>
</clipPath>
<g enable-background="new    " clip-path="url(#SVGID_2_)">
<path d="M85.245,58.712v2.615c0,0.4-0.029,0.799-0.086,1.193v-2.613        C85.216,59.511,85.245,59.112,85.245,58.712" style="fill:#9D5125;" transform="matrix( 0.8581359576530029, 0, 0, 0.7404620383886825, 7.0932020719930815, -2.023100523885036)"/>
<path d="M85.159,59.907v2.613c-0.074,0.5-0.189,0.996-0.346,1.486v-2.613        C84.97,60.901,85.085,60.407,85.159,59.907" style="fill:#9D5125;" transform="matrix( 0.8581359576530029, 0, 0, 0.7404620383886825, 7.0932020719930815, -2.023100523885036)"/>
<path d="M84.813,61.394v2.613c-0.205,0.633-0.477,1.258-0.812,1.861v-2.613        C84.337,62.649,84.608,62.026,84.813,61.394" style="fill:#9D5125;" transform="matrix( 0.8581359576530029, 0, 0, 0.7404620383886825, 7.0932020719930815, -2.023100523885036)"/>
<path d="M84.001,63.255v2.613c-2.23,4.035-7.223,7.25-13.012,7.25v-2.613        C76.778,70.505,81.771,67.288,84.001,63.255" style="fill:#9D5125;" transform="matrix( 0.8581359576530029, 0, 0, 0.7404620383886825, 7.0932020719930815, -2.023100523885036)"/>
</g>
</g>
<g>
<polygon style="fill:#9D5125;" transform="matrix( 0.8581359576530029, 0, 0, 0.7404620383886825, 7.0932020719930815, -2.023100523885036)" points="71.695,70.052 70.989,73.118 29.009,73.118 28.278,70.01      "/>
</g>
<g>
<clipPath id="SVGID_4_" transform="matrix( 0.8581359576530029, 0, 0, 0.7404620383886825, 7.0932020719930815, -2.023100523885036)">
<use xlink:href="#SVGID_3_" xlink:type="simple" xlink:actuate="onLoad" xlink:show="embed" overflow="visible"/>
</clipPath>
<g enable-background="new    " clip-path="url(#SVGID_4_)">
<path d="M29.009,70.505v2.613c-7.875,0-14.254-5.928-14.254-11.791v-2.615        C14.755,64.575,21.134,70.505,29.009,70.505" style="fill:#9D5125;" transform="matrix( 0.8581359576530029, 0, 0, 0.7404620383886825, 7.0932020719930815, -2.023100523885036)"/>
</g>
</g>
<g>
<path d="M41.88,26.882c7.318,0,13.617,4.352,16.443,10.578c1.465-0.998,3.246-1.592,5.17-1.592       c4.945,0,8.963,3.896,9.113,8.775c7.113,0.594,12.639,7.439,12.639,12.885v1.184c0,5.863-6.395,11.793-14.256,11.793h-41.98       c-7.875,0-14.254-5.93-14.254-11.793v-1.184c0-4.502,3.801-10.717,9.137-12.238c-0.016-0.174-0.027-0.35-0.027-0.525       C23.864,34.886,31.929,26.882,41.88,26.882z" style="fill:#F58535;" transform="matrix( 0.8581359576530029, 0, 0, 0.7404620383886825, 7.0932020719930815, -2.023100523885036)"/>
</g>
</g>
</g>
<g>
<path d="M32.419,47.812l-4.707,16.447h2.76l1.064-4.029h4.848l1.023,4.029h2.758l-4.359-16.447H32.419z      M32.026,58.134l1.973-8.111h0.043l1.902,8.111H32.026z" style="fill:#FFFFFF;" transform="matrix( 0.8581359576530029, 0, 0, 0.7404620383886825, 7.0932020719930815, -2.023100523885036)"/>
<polygon style="fill:#FFFFFF;" transform="matrix( 0.8581359576530029, 0, 0, 0.7404620383886825, 7.0932020719930815, -2.023100523885036)" points="51.995,60.663 51.948,60.663 49.722,47.812 46.938,47.812 44.761,60.595 44.712,60.595      42.536,47.812 39.868,47.812 43.065,64.259 46.128,64.259 48.239,51.868 48.288,51.868 50.421,64.259 53.479,64.259      56.771,47.812 54.149,47.812    "/>
<path d="M65.282,55.276l-1.785-0.648c-1.762-0.666-2.48-1.381-2.48-2.783c0-1.754,1.09-2.375,2.223-2.375     c1.646,0,2.32,0.875,2.32,2.375v0.346h2.646v-0.373c0-1.701-0.441-4.328-4.684-4.328c-3.107,0-5.148,1.66-5.148,4.658     c0,2.346,1.041,3.59,3.453,4.508l1.809,0.627c1.488,0.434,2.367,1.197,2.367,2.922c0,1.221-0.838,2.398-2.506,2.398     c-1.828,0-2.711-1.016-2.711-3.018v-0.418H58.14v0.393c0,2.305,0.93,5.02,5.031,5.02c3.34,0,5.477-1.449,5.477-4.947     C68.647,57.372,67.624,56.103,65.282,55.276z" style="fill:#FFFFFF;" transform="matrix( 0.8581359576530029, 0, 0, 0.7404620383886825, 7.0932020719930815, -2.023100523885036)"/>
</g>
</g>
</g>
</svg>
